<?xml version="1.0" encoding="UTF-8"?>
<svg viewBox="0 0 64 64" xmlns="http://www.w3.org/2000/svg">
 <defs>
  <linearGradient id="a" x1="-1294" x2="-971.9" y1="1196.3" y2="1293.7" gradientUnits="userSpaceOnUse">
   <stop stop-color="#002b3d" offset="0"/>
   <stop stop-color="#666" offset="1"/>
  </linearGradient>
  <linearGradient id="b" x1="-1526.2" x2="-1020.6" y1="1582.1" y2="1559.6" gradientUnits="userSpaceOnUse">
   <stop stop-color="#002b3d" offset="0"/>
   <stop stop-color="#333" offset="1"/>
  </linearGradient>
 </defs>
 <path d="m54.627 37.068c-14.847-6.9668-15.732-5.7064-23.067-2.1781l-0.0893-14.255c5.8501-5.8242 14.329-2.9696 23.114 2.3068z" fill="#f0f"/>
 <path d="m23.57417,43.27038 .42115-.009c5.58435-.224 9.8661-5.86131 15.4551-5.94601 5.4062-.0819 15.1497,5.29581 15.1497,5.29581v-1.2827c0-.005-.6268-.34551-1.6461-.85836v-2.6943c1.0193.5129 1.6442.85685 1.6461.8579v-.717c0,0-9.7435-5.37775-15.1497-5.2958-5.589.0846-9.87075,5.7225-15.4551,5.9465-5.8681.2353-16.77725-4.9242-16.77725-4.9242v.717c0,0 .48155.2278 1.29395.5844v2.6942c-.8124-.35645-1.29395-.58375-1.29395-.58375v1.28215c0,0 10.4034,4.92036 16.3561,4.93191zm-.72765-1.3057c-.64745-.0395-1.33545-.1278-2.04865-.2527v-2.69426c.7132.12495 1.4012.21245 2.04865.25215v2.69481zm1.53575-.0095v-2.69481c.70125-.0596 1.38265-.20225 2.0492-.4056v2.69476c-.66655.2034-1.34795.34605-2.0492.40565zm-4.99115-.52955c-.67525-.15405-1.36195-.33351-2.04865-.53006v-2.69475c.6867.19655 1.3734.3765 2.04865.5306v2.69421zm8.5719-.45056v-2.6942c.6929-.3045 1.3739-.65845 2.04925-1.03445v2.69425c-.67535.37605-1.35635.73-2.04925,1.03445zm-12.15625-.546c-.6979-.2236-1.3856-.45885-2.04925-.69675v-2.6947c.66365.2378 1.35135.47305 2.04925.6967v2.69475zm35.61155-.7092c-.62485-.29645-1.31595-.6139-2.04925-.933v-2.6942c.7333.31915 1.4244.63595 2.04925.9324v2.6948zm-39.3219-.6052c-.7439-.2864-1.43395-.5647-2.04865-.8201v-2.6947c.6147.25525 1.30475.53415 2.04865.8205v2.6943zm19.45155-.05925v-2.6942c.6813-.3998 1.3616-.801 2.04865-1.1741v2.69475c-.68705.37315-1.36735.77375-2.04865,1.17355zm16.41495-.85945c-.668-.27075-1.35635-.53465-2.04925-.7795v-2.6943c.6929.24485 1.38125.5083 2.04925.77895v2.69485zm-12.92835-1.03935v-2.69485c.67085-.30795 1.3513-.5721 2.04865-.76685v2.6948c-.6973.1947-1.3778.4588-2.04865.7669zm9.34335-.24665c-.6949-.21165-1.38265-.39545-2.0486-.53945v-2.6948c.66595.144 1.35375.3284 2.0486.54v2.69425zm-3.7097-.81515c-.42465-.046-.8322-.0678-1.2178-.06195-.28025.005-.55745.023-.83145.0537v-2.69475c.27395-.0305.5512-.049.83145-.05315 .3856-.007.79315.0145 1.2178.06195v2.6942z" fill="url(#b)" stroke="#000" stroke-width=".5"/>
 <path d="m23.57417,22.65227 .42115-.0085c5.58435-.224 9.8661-5.8619 15.4551-5.94655 5.4062-.0819 15.1497,5.2958 15.1497,5.2958v-1.28265c0,0-.6268-.34555-1.6461-.85845v-2.69425c1.0193.5129 1.6442.85745 1.6461.85845v-.71695c0,0-9.7435-5.37775-15.1497-5.2959-5.589.0847-9.87075,5.722-15.4551,5.94595-5.8681.2354-16.77725-4.9241-16.77725-4.9241v.7176c0,0 .48155.22725 1.29395.5838v2.69475c-.8124-.35645-1.29395-.5843-1.29395-.5843v1.2821c0,0 10.4034,4.9209 16.3561,4.9324zm-.72765-1.3063c-.64745-.0395-1.33545-.1272-2.04865-.2522v-2.69475c.7132.12495 1.4012.21295 2.04865.2527v2.69425zm1.53575-.0095v-2.6943c.70125-.0596 1.38265-.20225 2.0492-.4056v2.6942c-.66655.2034-1.34795.3461-2.0492.4057zm-4.99115-.5296c-.67525-.1541-1.36195-.3335-2.04865-.53005v-2.69425c.6867.1966 1.3734.37595 2.04865.53015v2.69415zm8.5719-.45v-2.6948c.6929-.30435 1.3739-.65835 2.04925-1.03435v2.69425c-.67535.37595-1.35635.7305-2.04925,1.0349zm-12.15625-.54645c-.6979-.2236-1.3856-.4589-2.04925-.69675v-2.6942c.66365.23785 1.35135.47305 2.04925.6967v2.69425zm35.61155-.7093c-.62485-.2965-1.31595-.6133-2.04925-.9325v-2.6942c.7333.31915 1.4244.636 2.04925.93245v2.69425zm-39.3219-.60455c-.7439-.2864-1.43395-.5653-2.04865-.82065v-2.6942c.6147.2553 1.30475.53365 2.04865.82v2.69485zm19.45155-.05925v-2.6942c.6813-.39985 1.3616-.801 2.04865-1.17415v2.6942c-.68705.37325-1.36735.7743-2.04865,1.17415zm16.41495-.85995c-.668-.27075-1.35635-.5341-2.04925-.779v-2.69475c.6929.24485 1.38125.5088 2.04925.77955v2.6942zm-12.92835-1.03935v-2.69425c.67085-.30805 1.3513-.57215 2.04865-.7669v2.6943c-.6973.19465-1.3778.4588-2.04865.76685zm9.34335-.24605c-.6949-.21165-1.38265-.396-2.0486-.5399v-2.6943c.66595.14405 1.35375.3278 2.0486.53945v2.69475zm-3.7097-.81505c-.42465-.0455-.8322-.06785-1.2178-.06195-.28025.005-.55745.0225-.83145.0531v-2.69425c.27395-.0305.5512-.049.83145-.0531 .3856-.007.79315.015 1.2178.06195v2.69425z" fill="url(#a)" stroke="#000" stroke-width=".5"/>
 <path d="m7.381 18.494c14.745 5.8518 15.701 6.3349 23.036 2.8066v14.033c-4.7194 5.139-14.149 1.6336-23.036-2.8066z" fill="#0169c9"/>
 <path d="m23.57417,22.65227 .42115-.0085c5.58435-.224 9.8661-5.8619 15.4551-5.94655 5.4062-.0819 15.1497,5.2958 15.1497,5.2958v-1.28265c0,0-.6268-.34555-1.6461-.85845v-2.69425c1.0193.5129 1.6442.85745 1.6461.85845v-.71695c0,0-9.7435-5.37775-15.1497-5.2959-5.589.0847-9.87075,5.722-15.4551,5.94595-5.8681.2354-16.77725-4.9241-16.77725-4.9241v.7176c0,0 .48155.22725 1.29395.5838v2.69475c-.8124-.35645-1.29395-.5843-1.29395-.5843v1.2821c0,0 10.4034,4.9209 16.3561,4.9324zm-.72765-1.3063c-.64745-.0395-1.33545-.1272-2.04865-.2522v-2.69475c.7132.12495 1.4012.21295 2.04865.2527v2.69425zm1.53575-.0095v-2.6943c.70125-.0596 1.38265-.20225 2.0492-.4056v2.6942c-.66655.2034-1.34795.3461-2.0492.4057zm-4.99115-.5296c-.67525-.1541-1.36195-.3335-2.04865-.53005v-2.69425c.6867.1966 1.3734.37595 2.04865.53015v2.69415zm8.5719-.45v-2.6948c.6929-.30435 1.3739-.65835 2.04925-1.03435v2.69425c-.67535.37595-1.35635.7305-2.04925,1.0349zm-12.15625-.54645c-.6979-.2236-1.3856-.4589-2.04925-.69675v-2.6942c.66365.23785 1.35135.47305 2.04925.6967v2.69425zm35.61155-.7093c-.62485-.2965-1.31595-.6133-2.04925-.9325v-2.6942c.7333.31915 1.4244.636 2.04925.93245v2.69425zm-39.3219-.60455c-.7439-.2864-1.43395-.5653-2.04865-.82065v-2.6942c.6147.2553 1.30475.53365 2.04865.82v2.69485zm19.45155-.05925v-2.6942c.6813-.39985 1.3616-.801 2.04865-1.17415v2.6942c-.68705.37325-1.36735.7743-2.04865,1.17415zm16.41495-.85995c-.668-.27075-1.35635-.5341-2.04925-.779v-2.69475c.6929.24485 1.38125.5088 2.04925.77955v2.6942zm-12.92835-1.03935v-2.69425c.67085-.30805 1.3513-.57215 2.04865-.7669v2.6943c-.6973.19465-1.3778.4588-2.04865.76685zm9.34335-.24605c-.6949-.21165-1.38265-.396-2.0486-.5399v-2.6943c.66595.14405 1.35375.3278 2.0486.53945v2.69475zm-3.7097-.81505c-.42465-.0455-.8322-.06785-1.2178-.06195-.28025.005-.55745.0225-.83145.0531v-2.69425c.27395-.0305.5512-.049.83145-.0531 .3856-.007.79315.015 1.2178.06195v2.69425z" fill="url(#a)" stroke="#000" stroke-width=".5"/>
 <g fill="#036" font-family="Righteous" font-size="15" letter-spacing="0" stroke="#6473c3" stroke-opacity=".2646" stroke-width=".6" word-spacing="0">
  <path d="m18.85467,53.69167h-1.99219v-4.98047c-9e-006-.13671-.02564-.26611-.0769-.38818s-.1233-.22949-.21607-.32227-.2002-.16479-.32227-.21606-.25147-.0769-.38818-.0769-.2649.02564-.38452.0769-.22462.1233-.31494.21606-.16114.2002-.2124.32227-.07691.25147-.0769.38818v4.98047h-1.99951v-4.98047c-5e-006-.13671-.02564-.26611-.0769-.38818s-.1233-.22949-.21607-.32227-.2002-.16479-.32227-.21606-.25147-.0769-.38818-.0769-.2649.02564-.38452.0769-.22461.1233-.31494.21606-.16114.2002-.2124.32227-.07691.25147-.07691.38818v4.98047h-1.99951v-7.84424h.4834l.54199.60059c.27832-.23437.58471-.41625.91919-.54565s.68237-.19408 1.0437-.19409c.36621,8e-006 .72387.06837 1.073.20508s.65551.37354.91919.71045c.12207-.16601.26122-.30761.41748-.4248s.32104-.21239.49439-.28564 .35278-.12573.53833-.15747 .36864-.0476.54932-.04761c.41503,8e-006 .80444.07813 1.16821.23438s.68114.36988.95215.64087 .48461.58961.64087.95581 .23436.75684.23438,1.17188z"/>
  <path d="m27.88543,49.69997c-8e-006,.58594-.10499,1.13159-.31494,1.63696s-.49561.94238-.85693,1.31104-.78492.65918-1.27075.87158-1.00709.3186-1.56372.3186c-.55176,0-1.07056-.1062-1.5564-.3186s-.91065-.50293-1.27441-.87158-.65064-.80566-.8606-1.31104-.31494-1.05102-.31494-1.63696c0-.5957.10498-1.14746.31494-1.65527s.49683-.94604.8606-1.3147 .78857-.65795 1.27441-.86792 1.00463-.31493 1.5564-.31494c.55663,8e-006 1.07787.09888 1.56372.29663s.90942.47852 1.27075.84228 .64697.80079.85693,1.31104 .31493,1.07789.31494,1.70288zm-2.01416,0c-6e-006-.32226-.0525-.61401-.15747-.87524s-.24781-.48584-.42847-.67383-.39185-.33203-.63355-.43213-.49927-.15014-.7727-.15015-.53101.05006-.7727.15015-.45166.24415-.62988.43213-.31861.4126-.42114.67383-.15381.55298-.15381.87524c-3e-006,.30274.05127.5835.15381.84228s.24292.4834.42114.67383 .38818.34058.62988.45044 .49926.1648.7727.1648 .531-.05127.7727-.15381 .45288-.24658.63355-.43213 .32348-.41015.42847-.67383 .15746-.55419.15747-.87158z"/>
  <path d="m31.233 53.692-2.9883-7.8442h2.2778l1.7139 4.8926 1.7065-4.8926h2.2852l-2.9883 7.8442z"/>
  <path d="m39.36248,43.71609c-3e-006,.18556-.0354.3589-.1062.52002s-.16724.30152-.28931.42114-.26489.21485-.42847.28564-.33814.10621-.52368.1062-.36011-.03539-.52368-.1062-.30518-.16601-.4248-.28564-.21484-.26-.28564-.42114-.1062-.33446-.1062-.52002c-1e-006-.18065.0354-.35277.1062-.51636s.16602-.30517.28564-.4248 .26123-.21483.4248-.28564 .33813-.10619.52368-.1062 .36011.03541.52368.1062 .30639.16603.42847.28564 .2185.26124.28931.4248 .1062.3357.1062.51636zm-.34424,9.97559h-2.01416v-7.84424h2.01416z"/>
  <path d="m43.66912,51.77273c.07812.02442.15625.04028.23438.04761s.15624.01099.23438.01099c.19531,2e-006 .3833-.02685.56397-.08057s.35034-.13061.50903-.23071 .30029-.22217.4248-.36621 .22582-.30395.30396-.47974l1.46484,1.47217c-.18555.26367-.39918.50049-.64087.71045s-.50294.38818-.78369.53467-.57618.25757-.88623.33325-.62867.11353-.95581.11353c-.55176,0-1.07056-.10254-1.5564-.30762s-.91065-.49072-1.27441-.85693-.65063-.802-.8606-1.30737-.31494-1.06079-.31494-1.66626c0-.62011.10498-1.18652.31494-1.69922s.49683-.9497.8606-1.31104 .78857-.64208 1.27441-.84228 1.00463-.30029 1.5564-.30029c.32714,8e-006 .64697.03907.95947.11719s.60913.19044.88989.33691 .54321.32593.78735.53833 .45898.45045.64453.71411zm1.02539-4.12354c-.09278-.03417-.18433-.05615-.27466-.06592s-.18433-.01464-.28198-.01465c-.27344,7e-006-.53101.05006-.7727.15015s-.45166.24293-.62988.42847-.31861.40894-.42114.67017-.15381.55542-.15381.88257c-3e-006,.07325.0037.15625.01099.24902s.01953.18677.03662.28198 .03784.18677.06226.27466 .05615.16602.09521.23438z"/>
  <path d="m52.73651,53.69167h-4.57031v-1.99219h4.57031c.13671,2e-006 .2539-.04883.35156-.14649s.14648-.21484.14648-.35156-.04883-.23437-.14648-.27832-.21485-.06592-.35156-.06592h-2.08008c-.34668,2e-006-.67139-.06592-.97412-.19775s-.56641-.31128-.79102-.53833-.40161-.49194-.53101-.79468-.19409-.62744-.19409-.97412 .0647-.67138.19409-.97412 .30639-.5664.53101-.79102 .48828-.4016.79102-.53101 .62744-.19408.97412-.19409h4.05029v1.99219h-4.05029c-.13672,6e-006-.25391.04883-.35156.14648s-.14649.21485-.14648.35156 .04883.26246.14648.36255 .21484.15015.35156.15015h2.08008c.34179,5e-006 .66406.05738.9668.17212s.5664.27466.79102.47974 .40282.45166.53467.73975 .19775.60303.19775.94482c-8e-006,.34668-.06593.67017-.19775.97046s-.31007.56397-.53467.79102-.48829.40527-.79102.53467-.62501.19409-.9668.19409z"/>
 </g>
</svg>
